<?xml version="1.0" encoding="utf-8"?>
<!-- Generator: Adobe Illustrator 24.0.0, SVG Export Plug-In . SVG Version: 6.00 Build 0)  -->
<svg version="1.1" id="Слой_1" xmlns="http://www.w3.org/2000/svg" xmlns:xlink="http://www.w3.org/1999/xlink" x="0px" y="0px"
	 viewBox="0 0 16382.98 16382.98" style="enable-background:new 0 0 16382.98 16382.98;" xml:space="preserve">
<style type="text/css">
	.st0{fill:url(#SVGID_1_);}
	.st1{fill:#FFFFFF;}
	.st2{fill:#2F1441;}
	.st3{fill:#230E3D;}
</style>
<linearGradient id="SVGID_1_" gradientUnits="userSpaceOnUse" x1="5284.3203" y1="5485.582" x2="10878.7266" y2="5485.582">
	<stop  offset="0.1985" style="stop-color:#230E3D"/>
	<stop  offset="0.8073" style="stop-color:#57284D"/>
	<stop  offset="0.9221" style="stop-color:#5F2C4F"/>
</linearGradient>
<path class="st0" d="M5878.55,2619.22c0,0-394.03,79.6-478.78,177.56c-79.87,92.32-105.63,358.23-110.49,481.95
	c-11.19,285.13,0,1141.47,0,1141.47v1044.54v1542.79v760.98c0,0,135.82,411.66,251.15,494.64c89.9,64.67,473.15,88.78,473.15,88.78
	h687.47h1305.38h928.91h1272.13c0,0,435.59-232.22,526.86-393.17c211.19-372.44,128.39-1817.21,128.39-1817.21l2.89-1039.46
	l-14.15-1683.85l-58.79-310.17c0,0-120.86-205.74-168.93-258.18c-92.37-100.76-509.89-230.68-509.89-230.68H8461.64h-1073.1H5878.55
	z"/>
<path class="st1" d="M6615.13,3671.91v3575.02c0,0,1419.64,51.25,1890.55,9.51c896.17-79.43,958.32-632.56,958.32-632.56
	s52.66-22.2,0.88-764.42c-7.46-106.93-171.46-310.66-257.8-387.1c-37.33-33.04-122.73-85.2-167.13-107.01
	c-33.61-16.51-140.68-42.27-140.68-42.27s85.62-10.84,112.37-20.19c48.65-17.02,141.87-70.38,175.37-110.6
	c62.32-74.82,155.34-254.92,173.4-351.85c20.49-109.98,20.23-339.14-5.37-447.98c-17.12-72.79-72.59-213.61-112.39-276.23
	c-44.27-69.66-143.63-206.1-210.63-252.49c-65.25-45.18-195.41-119.45-271.84-138.17c-102.99-25.22-333.12-45.17-438.65-53.66
	C7896.23,3637.66,6615.13,3671.91,6615.13,3671.91z"/>
<path class="st2" d="M7477.54,4312.4v772.87h660.62c0,0,164.25-14.26,209.86-43.13c27.67-17.52,60.54-79.34,75.57-109.06
	c11.1-21.97,26.97-78.48,26.97-95.12s22.53-236.93,3.35-308.36c-12.73-47.43-57.29-134.54-93.63-163.69
	c-28.06-22.51-97.17-48.38-132.35-53.51C8044.45,4285.68,7477.54,4312.4,7477.54,4312.4z"/>
<path class="st2" d="M7486.75,5672.66v951.23h780.31c0,0,146.7-40.05,186.45-68.96c50.03-36.4,110.17-155.51,126.6-216.4
	c25.8-95.64,30.75-303.07,0-397.14c-16.55-50.63-69.62-147.97-110.49-180.73c-44.24-35.47-151.81-79.27-207.16-87.99
	C8070.74,5642.47,7486.75,5672.66,7486.75,5672.66z"/>
<path class="st3" d="M-76.99,8830.72v2672.94H1179.8c0,0,276.38-93.68,355.92-149.28c75.6-52.85,194.51-208.59,224.13-297.8
	c42.57-128.22,0-542.2,0-542.2s-89.89-212.93-138.11-271.1c-32.64-39.38-161.13-123.66-161.13-123.66l-171.95-29.77
	c0,0,198.47-38.52,259.42-93.89c64.17-58.3,136.43-231.09,147.32-318.66c11.6-93.35,3.65-285.74-23.02-375.73
	c-25.43-85.81-119.61-244.33-184.14-304.39c-40.92-38.08-145.56-82.33-197.96-99.88c-58.96-19.74-239.39-66.58-239.39-66.58H420.2
	H-76.99z"/>
<path class="st1" d="M318.92,9154.14c0,28.54,0,770.49,0,770.49s626.24,7.14,644.51,0c41.51-16.22,170.49-46.11,220.97-76.1
	c49.57-29.44,127.18-125.45,147.32-180.73c29.73-81.61,5.2-269.04-32.23-347.2c-22.36-46.69-112.52-107.79-158.82-128.42
	c-56.59-25.2-243.74-38.05-243.74-38.05h-186.7H318.92z"/>
<path class="st1" d="M318.92,10262.32v908.42c0,0,544.09,27.78,722.77,0c68.3-10.62,203.4-64.7,253.2-114.15
	c45.77-45.44,83.64-178.38,96.68-242.56c15.77-77.65,5.42-243.58-25.32-316.28c-17.27-40.84-87.5-110.64-119.69-140.31
	c-31.1-28.65-100.77-67.6-140.41-80.85c-38.39-12.83-161.13-9.51-161.13-9.51L318.92,10262.32z"/>
<path class="st3" d="M2809.48,9449.02c-112.26,33-333.7,138.19-411.26,228.29c-87.34,101.47-203.84,356.23-227.11,489.88
	c-29.54,169.69-36.35,521.37,0,689.64c21.6,99.99,85.6,300.29,147.32,380.49c65.33,84.9,234.09,225.82,331.46,266.34
	c94.08,39.16,297.55,75.29,398.98,76.1c91,0.72,275.74-8.56,362.15-38.05c58.23-19.87,176.14-99.54,208.7-133.17
	c72.88-75.29,217.77-262.08,257.8-367.81c47.05-124.28,88.96-392.94,85.93-526.34c-2.22-97.73-34.29-291.5-55.24-386.83
	c-17.23-78.38-40.58-241.32-79.8-310.73c-38.84-68.74-217.9-225.12-217.9-225.12s-259.84-124.53-352.94-142.68
	C3147.49,9427.56,2917.22,9417.35,2809.48,9449.02z"/>
<path class="st3" d="M4906.97,9433.76c-112.26,33-333.7,138.19-411.26,228.29c-87.34,101.47-203.84,356.23-227.11,489.88
	c-29.54,169.69-36.35,521.37,0,689.64c21.6,99.99,85.6,300.29,147.32,380.49c65.33,84.9,234.08,225.82,331.46,266.34
	c94.08,39.16,297.55,75.29,398.98,76.1c91,0.72,275.74-8.56,362.15-38.05c58.23-19.87,176.14-99.54,208.7-133.17
	c72.88-75.29,217.77-262.08,257.8-367.81c47.05-124.28,88.96-392.94,85.93-526.34c-2.22-97.73-34.29-291.5-55.24-386.83
	c-17.23-78.38-40.58-241.32-79.8-310.73c-38.84-68.74-217.9-225.12-217.9-225.12s-259.84-124.53-352.94-142.68
	C5244.98,9412.31,5014.72,9402.09,4906.97,9433.76z"/>
<path class="st1" d="M5009.78,9747.07c-65.79,22.39-167.86,83.23-214.84,135.82c-47.7,53.41-135.9,215.89-159.59,284.31
	c-45.33,130.9-53.56,419.75-24.55,555.5c17.65,82.61,80.34,287.42,97.7,305.35c71.34,73.7,186.43,170,252.18,196.59
	c81.45,32.94,264.7,20.58,349.87,0c73.81-17.84,207.64-106.17,257.8-164.88c58.03-67.93,110.27-248.53,128.9-337.06
	c21.14-100.46,15.55-354.61,0-456.15c-13.14-85.78-78.42-204.72-122.76-278.5c-29.19-48.57-112.17-127.52-156.52-161.71
	c-36.04-27.78-119.35-66.81-162.66-79.27C5196.17,9730.06,5068.08,9727.23,5009.78,9747.07z"/>
<path class="st1" d="M2912.29,9747.07c-65.79,22.39-167.86,83.23-214.84,135.82c-47.7,53.41-135.9,215.89-159.59,284.31
	c-45.33,130.9-53.56,419.75-24.55,555.5c17.66,82.61,80.34,287.42,97.7,305.35c71.34,73.7,186.43,170,252.18,196.59
	c81.45,32.94,264.71,20.58,349.87,0c73.81-17.84,207.64-106.17,257.8-164.88c58.03-67.93,110.27-248.53,128.9-337.06
	c21.14-100.46,15.55-354.61,0-456.15c-13.14-85.78-78.42-204.72-122.76-278.5c-29.19-48.57-112.17-127.52-156.52-161.71
	c-36.04-27.78-119.35-66.81-162.66-79.27C3098.68,9730.06,2970.59,9727.23,2912.29,9747.07z"/>
<path class="st3" d="M6498.51,8922.67v577.08h-245.53v285.37h245.53c0,0-32.79,1072.01,43.48,1402
	c17.6,76.17,60.82,167.86,116.11,221.42c38.06,36.87,133.03,90.64,184.14,101.46c160.85,34.07,656.78,0,656.78,0v-317.07
	c0,0-420.23,7.35-547.83-30.12c-34.79-10.22-45.71-52.33-61.38-110.88c-14.21-53.08-11.64-110.56-13.81-144.37
	c-17.59-273.67-33.76-1097.08-33.76-1097.08h656.78v-310.73h-650.64v-577.08H6498.51z"/>
<path class="st3" d="M9101.47,9871.13c21.17-25.1-8.06-346.01-8.06-346.01L8831,9468.04c0,0-478.54-26.4-635.3,0
	c-78.9,13.29-230.12,79.63-294.63,128.42c-63.38,47.93-156.02,188.93-179.54,266.34c-28.26,93.02-25.77,296.21,0,390
	c16.44,59.85,61.79,181.16,105.88,223.54c45.35,43.58,165.81,87.41,223.98,109.39c52.35,19.78,155.49,63.9,208.76,80.85
	c61.09,19.44,185.76,49.69,248.59,61.83c51.52,9.95,207.16,33.29,207.16,33.29s67.21,73.61,78.26,104.63
	c16.72,46.92,9.21,199.76,9.21,199.76l-142.71,123.66c0,0-297.25,8.12-395.91,0c-65.2-5.37-195.32-24.62-258.31-42.81
	c-56.71-16.37-162.69-73.87-220.46-85.61c-25.97-5.28-105.88,0-105.88,0v399.51l170.33,64.29l200.96,45.1c0,0,496.01,39.53,655.31,0
	c64.06-15.9,234.78-123.66,234.78-123.66l179.54-152.2l105.88-218.78c0,0,7.83-352.82-46.04-451.83
	c-41.84-76.91-193.31-178.81-271.61-214.03c-68.43-30.78-285.42-90.37-285.42-90.37l-331.46-95.48c0,0-146.12-32.64-174.94-70.99
	c-30.35-40.39-18.94-157.28,0-204.51c14.01-34.96,70.06-91.79,103.58-107.01c53.96-24.51,173.56-39.13,232.48-40.43
	c52.98-1.17,158.88,6.13,211.77,9.51c39.12,2.5,113.53,6.1,151.92,14.27c34.4,7.32,114.5,39.89,143.29,45.78
	C9001.19,9878.85,9074.2,9903.45,9101.47,9871.13z"/>
<path class="st3" d="M9659.65,8922.67l1.54,577.08h-237.85v285.37h245.53c0,0-60.92,1072.01,15.35,1402
	c17.6,76.17,88.95,167.86,144.25,221.42c38.06,36.87,133.03,90.64,184.14,101.46c160.85,34.07,656.78,0,656.78,0v-317.07
	c0,0-420.23,7.35-547.83-30.12c-34.79-10.22-45.71-52.33-61.38-110.88c-14.21-53.08-11.64-110.56-13.81-144.37
	c-17.59-273.67-33.76-1097.08-33.76-1097.08h656.78v-310.73h-650.64v-577.08H9659.65z"/>
<path class="st3" d="M11003.91,9512.43v481.95v656.35v621.47v228.29h349.88v-599.27v-491.47c0,0,24.73-209.2,49.1-272.79
	c17.78-46.38,67.23-117.67,92.07-155.26c24.6-37.22,92.15-99.39,128.9-123.66c33.1-21.86,112.87-28.91,151.92-33.29
	c51.11-5.74,197.96-1.59,197.96-1.59l92.07,6.34l92.07,9.51v-370.98c0,0-367.08-19.15-478.78,9.51
	c-42.97,11.03-138.11,76.1-138.11,76.1l-147.32,107.81l-32.22,33.29l-4.6-195L11003.91,9512.43z"/>
<path class="st3" d="M12424.03,9598.86l381.43-137.08h598.47l282.36,145.78l178.01,225.12l58.31,180.73v672.2v814.88h-306.91
	l-12.28-234.64c0,0-67.66,115.44-105.88,150.61c-24.96,22.97-109.84,68.39-139.64,84.03c-38.52,20.21-120.56,50.26-162.66,60.24
	c-132.37,31.38-414.93,46-543.23,0c-76.51-27.43-191.98-156.53-242.46-221.95c-40.88-52.98-113.08-171.35-125.83-237.81
	c-20.18-105.11-12.43-326.79,21.48-428.05c19.23-57.43,82.14-162.5,119.69-209.27c33.95-42.28,103.82-128.85,150.38-155.37
	c40.25-22.93,133.08-37.53,178.01-47.56c38.74-8.65,153.45-41.22,153.45-41.22l303.84,9.51h343.74v-174.39l-113.56-136.34
	l-141.18-91.95l-405.12-22.2l-165.73,53.9l-190.28,72.93l-103.28,15.23L12424.03,9598.86z"/>
<path class="st1" d="M13607.25,10830.67c0,129.28-37.44,232.3-177.24,344.82c-84.35,67.89-259.6,101.04-355.38,101.04
	c-105.31,0-202.36,13.95-279.97-34.46c-109.98-68.59-180.91-219.34-180.91-340.86c0-94.85,6.75-219.14,78.01-285.22
	c84.47-78.32,244.8-90.1,382.87-90.1c114.59,0,270.54,13.01,364.59,35.1C13554.08,10587.98,13607.25,10716.71,13607.25,10830.67z"/>
<path class="st3" d="M14514.93,9525.12v2764.89h380.56v-957.57c0,0,169.91,206.22,245.53,237.81
	c129.47,54.07,375.52,34.26,512.54,6.34c63.3-12.9,227.4-103.05,279.29-142.68c73.62-56.23,186.11-210.62,233.25-291.71
	c42.73-73.51,95.44-239.1,110.49-323.42c21.98-123.17,9.22-376.1,0-500.98c-9-121.92-54.64-367.8-110.49-475.61
	c-52.75-101.85-230.05-256.61-325.32-317.08c-69.48-44.1-306.91-114.15-306.91-114.15s-283.23,12.23-368.29,50.81
	c-76.81,34.83-257.8,221.88-257.8,221.88l-12.28-171.22L14514.93,9525.12z"/>
<ellipse class="st1" cx="15423.38" cy="10565.12" rx="561.64" ry="868.79"/>
</svg>
