<?xml version="1.0" encoding="utf-8"?>
<!-- Generator: Adobe Illustrator 24.0.0, SVG Export Plug-In . SVG Version: 6.00 Build 0)  -->
<svg version="1.1" id="Слой_1" xmlns="http://www.w3.org/2000/svg" xmlns:xlink="http://www.w3.org/1999/xlink" x="0px" y="0px"
	 viewBox="0 0 8192 8192" style="enable-background:new 0 0 8192 8192;" xml:space="preserve">
<style type="text/css">
	.st0{fill:#DFBA13;}
	.st1{fill:#FFFFFF;}
	.st2{fill:#FFDA1F;}
</style>
<image style="display:none;overflow:visible;enable-background:new    ;" width="1170" height="820" xlink:href="7D5476FF.png"  transform="matrix(6.9263 0 0 7.9323 88.1681 123.28)">
</image>
<polygon class="st0" points="1279.3,141.4 1856.9,7399.4 4427.2,8192 7016.1,7386.8 7606.4,141.4 "/>
<polygon class="st1" points="2447.2,1561.5 2524.2,2480 3396.9,2480 3396.9,5474.4 2973.4,5373.7 2922.1,4694.3 2139.2,4694.3 
	2216.2,6065.7 4205.5,6543.8 4205.5,1561.5 "/>
<polygon class="st2" points="4427.2,718.6 4442.9,7550.3 6502.7,6921.3 7003.2,718.6 "/>
<polygon class="st1" points="4654.6,1561.5 4654.6,4254 5707,4254 5617.2,5386.3 4654.6,5612.8 4654.6,6543.8 6412.9,6078.3 
	6592.6,3322.9 5488.8,3310.4 5488.8,2442.2 6669.6,2429.6 6746.6,1561.5 "/>
</svg>
